<?xml version="1.0" standalone="no"?>
<!DOCTYPE svg PUBLIC "-//W3C//DTD SVG 20010904//EN"
 "http://www.w3.org/TR/2001/REC-SVG-20010904/DTD/svg10.dtd">
<svg version="1.0" xmlns="http://www.w3.org/2000/svg"
 width="512.000000pt" height="512.000000pt" viewBox="0 0 512.000000 512.000000"
 preserveAspectRatio="xMidYMid meet">
<metadata>
Created by potrace 1.16, written by Peter Selinger 2001-2019
</metadata>
<g transform="translate(0.000000,512.000000) scale(0.100000,-0.100000)"
fill="#000000" stroke="none">
<path d="M1943 5006 c-142 -28 -284 -130 -362 -261 -102 -169 -109 -412 -20
-679 107 -321 400 -737 885 -1256 28 -30 69 -75 90 -99 l39 -44 45 50 c419
462 574 650 724 876 144 216 226 389 278 580 18 67 22 110 22 232 1 132 -2
159 -23 223 -64 195 -216 334 -412 379 -130 29 -289 -5 -394 -85 -62 -47 -139
-148 -196 -258 -24 -46 -47 -84 -50 -84 -4 0 -13 15 -20 33 -31 76 -117 207
-175 265 -73 73 -142 108 -252 128 -91 16 -98 16 -179 0z"/>
<path d="M740 2586 c-138 -73 -257 -174 -309 -260 -61 -102 -74 -155 -75 -306
-1 -117 2 -145 23 -209 30 -90 104 -205 169 -261 26 -22 79 -56 117 -74 123
-60 224 -69 380 -37 227 47 455 177 740 424 157 135 715 706 715 731 0 3 -388
7 -862 8 -827 3 -864 2 -898 -16z"/>
</g>
</svg>
